<?xml version="1.0" standalone="no"?><!DOCTYPE svg PUBLIC "-//W3C//DTD SVG 1.1//EN" "http://www.w3.org/Graphics/SVG/1.1/DTD/svg11.dtd"><svg t="1610183607248" class="icon" viewBox="0 0 1024 1024" version="1.1" xmlns="http://www.w3.org/2000/svg" p-id="4719" xmlns:xlink="http://www.w3.org/1999/xlink" width="200" height="200"><defs><style type="text/css"></style></defs><path d="M869.376 506.9824L526.4384 164.0448c-7.9872-7.9872-20.992-7.9872-28.9792 0L154.624 506.9824c-12.9024 12.9024-3.7888 34.9184 14.4384 34.9184h57.6512v303.5136c0 11.264 9.216 20.48 20.48 20.48H450.56V660.2752c0-33.8944 27.5456-61.44 61.44-61.44s61.44 27.5456 61.44 61.44v205.6192h206.4384c11.264 0 20.48-9.216 20.48-20.48V541.9008h54.4768c18.2272 0 27.4432-22.016 14.5408-34.9184z m-87.3472-6.0416c-0.7168-0.1024-1.4336-0.1024-2.1504-0.1024h-20.48v313.856c0 5.632-4.608 10.24-10.24 10.24H614.4V660.2752c0-56.4224-45.9776-102.4-102.4-102.4s-102.4 45.9776-102.4 102.4v164.6592H278.016c-5.632 0-10.24-4.608-10.24-10.24V552.0384v-51.2h-20.48c-0.7168 0-1.4336 0-2.1504 0.1024h-26.5216L512 207.5648l293.376 293.376h-23.3472z" p-id="4720"></path></svg>