<?xml version="1.0" standalone="no"?><!DOCTYPE svg PUBLIC "-//W3C//DTD SVG 1.1//EN" "http://www.w3.org/Graphics/SVG/1.1/DTD/svg11.dtd"><svg t="1610009528250" class="icon" viewBox="0 0 1024 1024" version="1.1" xmlns="http://www.w3.org/2000/svg" p-id="13814" xmlns:xlink="http://www.w3.org/1999/xlink" width="200" height="200"><defs><style type="text/css"></style></defs><path d="M967.8 916.2V434c0-59.6-18.8-104.3-52.9-125.9-30.6-19.3-134.1-84.3-135.2-85-14-8.8-32.5-4.6-41.4 9.5-8.8 14-4.6 32.5 9.5 41.4 1 0.7 104.6 65.7 135 84.9 15.6 9.8 24.9 37.9 24.9 75.1v482.7c0.1 15.4 0.3 24.8-12.9 38.1-1.8 1.8-7.3 7.3-22.6 7.3H764.4c-0.6 0-1.2-0.1-1.9-0.1-16.6 0-30 13.4-30 30 0 16.4 13.2 29.7 29.5 30h110.2c26.8 0 60.8-12.3 75.3-30.8 18.3-23.2 20.4-51.4 20.3-75zM626.7 62.8V913c0 28.1-22.9 51-51 51H167.5c-28.1 0-51-22.9-51-51V264.2c0-25.8 9-50.9 25.4-70.8s39.4-33.5 64.7-38.4c0.5-0.1 0.9-0.2 1.4-0.3l418.7-91.9M638 0.1c-3.1 0-6.2 0.3-9.4 0.9L195.1 96.1c-80.5 15.6-138.6 86.1-138.6 168.1V913c0 61.3 49.7 111 111 111h408.3c61.3 0 111-49.7 111-111V49C686.7 21.5 664.3 0.1 638 0.1z" fill="#448BFB" p-id="13815"></path><path d="M431.6 552.2H312.2v119.4h119.4V552.2zM431.6 367.8H312.2v119.4h119.4V367.8z" fill="#448BFB" p-id="13816"></path></svg>